<svg width="103" height="103" viewBox="0 0 103 103" fill="none" xmlns="http://www.w3.org/2000/svg">
<rect width="103" height="103" rx="50" fill="white" fill-opacity="0.1"/>
<rect x="0.5" y="0.5" width="102" height="102" rx="49.5" stroke="white" stroke-opacity="0.2"/>
<path d="M51.3 47.1879L59.9287 38.5592C58.4771 37.9528 57.1587 37.0673 56.0483 35.9529C54.9334 34.8423 54.0475 33.5235 53.4408 32.0714L44.8122 40.7001C44.139 41.3732 43.8018 41.7104 43.5125 42.0814C43.1711 42.5195 42.8781 42.9932 42.6387 43.4942C42.4368 43.9189 42.2863 44.3716 41.9853 45.2746L40.3963 50.0381C40.3232 50.2562 40.3123 50.4904 40.365 50.7143C40.4177 50.9382 40.5317 51.143 40.6944 51.3057C40.857 51.4684 41.0619 51.5824 41.2858 51.6351C41.5097 51.6877 41.7439 51.6769 41.962 51.6037L46.7255 50.0147C47.6297 49.7137 48.0812 49.5632 48.5058 49.3614C49.0091 49.1219 49.48 48.8306 49.9187 48.4876C50.2897 48.1982 50.6268 47.8611 51.3 47.1879ZM62.3227 36.1652C63.183 35.3049 63.6663 34.138 63.6663 32.9213C63.6663 31.7046 63.183 30.5378 62.3227 29.6774C61.4623 28.8171 60.2955 28.3337 59.0788 28.3337C57.862 28.3337 56.6952 28.8171 55.8348 29.6774L54.8 30.7122L54.8443 30.8417C55.3541 32.301 56.1887 33.6254 57.285 34.7151C58.4073 35.8442 59.778 36.6952 61.2878 37.2001L62.3227 36.1652Z" fill="white" fill-opacity="0.75"/>
<path d="M26.108 64.2898H23.983C23.9223 63.9413 23.8106 63.6326 23.6477 63.3636C23.4848 63.0909 23.2822 62.8598 23.0398 62.6705C22.7973 62.4811 22.5208 62.339 22.2102 62.2443C21.9034 62.1458 21.572 62.0966 21.2159 62.0966C20.5833 62.0966 20.0227 62.2557 19.5341 62.5739C19.0455 62.8883 18.6629 63.3504 18.3864 63.9602C18.1098 64.5663 17.9716 65.3068 17.9716 66.1818C17.9716 67.072 18.1098 67.822 18.3864 68.4318C18.6667 69.0379 19.0492 69.4962 19.5341 69.8068C20.0227 70.1136 20.5814 70.267 21.2102 70.267C21.5587 70.267 21.8845 70.2216 22.1875 70.1307C22.4943 70.036 22.7689 69.8977 23.0114 69.7159C23.2576 69.5341 23.464 69.3106 23.6307 69.0455C23.8011 68.7803 23.9186 68.4773 23.983 68.1364L26.108 68.1477C26.0284 68.7008 25.8561 69.2197 25.5909 69.7045C25.3295 70.1894 24.9867 70.6174 24.5625 70.9886C24.1383 71.3561 23.642 71.6439 23.0739 71.8523C22.5057 72.0568 21.875 72.1591 21.1818 72.1591C20.1591 72.1591 19.2462 71.9223 18.4432 71.4489C17.6402 70.9754 17.0076 70.2917 16.5455 69.3977C16.0833 68.5038 15.8523 67.4318 15.8523 66.1818C15.8523 64.928 16.0852 63.8561 16.5511 62.9659C17.017 62.072 17.6515 61.3883 18.4545 60.9148C19.2576 60.4413 20.1667 60.2045 21.1818 60.2045C21.8295 60.2045 22.4318 60.2955 22.9886 60.4773C23.5455 60.6591 24.0417 60.9261 24.4773 61.2784C24.9129 61.6269 25.2708 62.0549 25.5511 62.5625C25.8352 63.0663 26.0208 63.642 26.108 64.2898ZM30.0043 66.8864V72H27.9474V60.3636H29.9588V64.7557H30.0611C30.2656 64.2633 30.5819 63.875 31.0099 63.5909C31.4418 63.303 31.991 63.1591 32.6577 63.1591C33.2637 63.1591 33.7921 63.286 34.2429 63.5398C34.6937 63.7936 35.0421 64.1648 35.2884 64.6534C35.5384 65.142 35.6634 65.7386 35.6634 66.4432V72H33.6065V66.7614C33.6065 66.1742 33.455 65.7178 33.152 65.392C32.8527 65.0625 32.4323 64.8977 31.8906 64.8977C31.527 64.8977 31.2012 64.9773 30.9134 65.1364C30.6293 65.2917 30.4058 65.517 30.2429 65.8125C30.0838 66.108 30.0043 66.4659 30.0043 66.8864ZM41.5668 72.1705C40.7145 72.1705 39.9759 71.983 39.3509 71.608C38.7259 71.233 38.241 70.7083 37.8963 70.0341C37.5554 69.3598 37.3849 68.572 37.3849 67.6705C37.3849 66.7689 37.5554 65.9792 37.8963 65.3011C38.241 64.6231 38.7259 64.0966 39.3509 63.7216C39.9759 63.3466 40.7145 63.1591 41.5668 63.1591C42.419 63.1591 43.1577 63.3466 43.7827 63.7216C44.4077 64.0966 44.8906 64.6231 45.2315 65.3011C45.5762 65.9792 45.7486 66.7689 45.7486 67.6705C45.7486 68.572 45.5762 69.3598 45.2315 70.0341C44.8906 70.7083 44.4077 71.233 43.7827 71.608C43.1577 71.983 42.419 72.1705 41.5668 72.1705ZM41.5781 70.5227C42.0402 70.5227 42.4266 70.3958 42.7372 70.142C43.0478 69.8845 43.2789 69.5398 43.4304 69.108C43.5857 68.6761 43.6634 68.1951 43.6634 67.6648C43.6634 67.1307 43.5857 66.6477 43.4304 66.2159C43.2789 65.7803 43.0478 65.4337 42.7372 65.1761C42.4266 64.9186 42.0402 64.7898 41.5781 64.7898C41.1046 64.7898 40.7107 64.9186 40.3963 65.1761C40.0857 65.4337 39.8527 65.7803 39.6974 66.2159C39.5459 66.6477 39.4702 67.1307 39.4702 67.6648C39.4702 68.1951 39.5459 68.6761 39.6974 69.108C39.8527 69.5398 40.0857 69.8845 40.3963 70.142C40.7107 70.3958 41.1046 70.5227 41.5781 70.5227ZM41.5724 75.142C41.2429 75.142 40.9607 75.0322 40.7259 74.8125C40.4948 74.5928 40.3793 74.3295 40.3793 74.0227C40.3793 73.7159 40.4948 73.4527 40.7259 73.233C40.9607 73.0133 41.241 72.9034 41.5668 72.9034C41.8963 72.9034 42.1766 73.0133 42.4077 73.233C42.6425 73.4527 42.7599 73.7159 42.7599 74.0227C42.7599 74.3295 42.6425 74.5928 42.4077 74.8125C42.1766 75.0322 41.8982 75.142 41.5724 75.142ZM49.5511 66.8864V72H47.4943V63.2727H49.4602V64.7557H49.5625C49.7633 64.267 50.0833 63.8788 50.5227 63.5909C50.9659 63.303 51.5133 63.1591 52.1648 63.1591C52.767 63.1591 53.2917 63.2879 53.7386 63.5455C54.1894 63.803 54.5379 64.1761 54.7841 64.6648C55.0341 65.1534 55.1572 65.7462 55.1534 66.4432V72H53.0966V66.7614C53.0966 66.178 52.9451 65.7216 52.642 65.392C52.3428 65.0625 51.928 64.8977 51.3977 64.8977C51.0379 64.8977 50.7178 64.9773 50.4375 65.1364C50.161 65.2917 49.9432 65.517 49.7841 65.8125C49.6288 66.108 49.5511 66.4659 49.5511 66.8864ZM63.7244 72.1761C63.1714 72.1761 62.6733 72.0777 62.2301 71.8807C61.7907 71.6799 61.4422 71.3845 61.1847 70.9943C60.9309 70.6042 60.804 70.1231 60.804 69.5511C60.804 69.0587 60.8949 68.6515 61.0767 68.3295C61.2585 68.0076 61.5066 67.75 61.821 67.5568C62.1354 67.3636 62.4896 67.2178 62.8835 67.1193C63.2813 67.017 63.6922 66.9432 64.1165 66.8977C64.6278 66.8447 65.0426 66.7973 65.3608 66.7557C65.679 66.7102 65.91 66.642 66.054 66.5511C66.2017 66.4564 66.2756 66.3106 66.2756 66.1136V66.0795C66.2756 65.6515 66.1487 65.3201 65.8949 65.0852C65.6411 64.8504 65.2756 64.733 64.7983 64.733C64.2945 64.733 63.8949 64.8428 63.5994 65.0625C63.3078 65.2822 63.1108 65.5417 63.0085 65.8409L61.0881 65.5682C61.2396 65.0379 61.4896 64.5947 61.8381 64.2386C62.1866 63.8788 62.6127 63.6098 63.1165 63.4318C63.6203 63.25 64.1771 63.1591 64.7869 63.1591C65.2074 63.1591 65.6259 63.2083 66.0426 63.3068C66.4593 63.4053 66.84 63.5682 67.1847 63.7955C67.5294 64.0189 67.8059 64.3239 68.0142 64.7102C68.2263 65.0966 68.3324 65.5795 68.3324 66.1591V72H66.3551V70.8011H66.2869C66.1619 71.0436 65.9858 71.2708 65.7585 71.483C65.535 71.6913 65.2528 71.8598 64.9119 71.9886C64.5748 72.1136 64.179 72.1761 63.7244 72.1761ZM64.2585 70.6648C64.6714 70.6648 65.0294 70.5833 65.3324 70.4205C65.6354 70.2538 65.8684 70.0341 66.0312 69.7614C66.1979 69.4886 66.2812 69.1913 66.2812 68.8693V67.8409C66.2169 67.8939 66.107 67.9432 65.9517 67.9886C65.8002 68.0341 65.6297 68.0739 65.4403 68.108C65.2509 68.142 65.0634 68.1723 64.8778 68.1989C64.6922 68.2254 64.5313 68.2481 64.3949 68.267C64.0881 68.3087 63.8134 68.3769 63.571 68.4716C63.3286 68.5663 63.1373 68.6989 62.9972 68.8693C62.857 69.036 62.7869 69.2519 62.7869 69.517C62.7869 69.8958 62.9252 70.1818 63.2017 70.375C63.4782 70.5682 63.8305 70.6648 64.2585 70.6648ZM65.6676 62.0455H64.0994L64.0199 60.9545C64.4214 60.9394 64.7055 60.8883 64.8722 60.8011C65.0388 60.7102 65.1203 60.5852 65.1165 60.4261C65.1203 60.2216 65.0104 60.0795 64.7869 60C64.5634 59.9205 64.2869 59.8807 63.9574 59.8807L64.0085 58.8636C64.9479 58.8636 65.66 59 66.1449 59.2727C66.6297 59.5455 66.8703 59.9167 66.8665 60.3864C66.8703 60.7462 66.7472 61.0152 66.4972 61.1932C66.2472 61.3674 65.9706 61.4773 65.6676 61.5227V62.0455ZM72.4574 66.8864V72H70.4006V63.2727H72.3665V64.7557H72.4688C72.6695 64.267 72.9896 63.8788 73.429 63.5909C73.8722 63.303 74.4195 63.1591 75.071 63.1591C75.6733 63.1591 76.1979 63.2879 76.6449 63.5455C77.0956 63.803 77.4441 64.1761 77.6903 64.6648C77.9403 65.1534 78.0634 65.7462 78.0597 66.4432V72H76.0028V66.7614C76.0028 66.178 75.8513 65.7216 75.5483 65.392C75.2491 65.0625 74.8343 64.8977 74.304 64.8977C73.9441 64.8977 73.6241 64.9773 73.3438 65.1364C73.0672 65.2917 72.8494 65.517 72.6903 65.8125C72.535 66.108 72.4574 66.4659 72.4574 66.8864ZM82.2074 66.8864V72H80.1506V60.3636H82.1619V64.7557H82.2642C82.4688 64.2633 82.785 63.875 83.2131 63.5909C83.6449 63.303 84.1941 63.1591 84.8608 63.1591C85.4669 63.1591 85.9953 63.286 86.446 63.5398C86.8968 63.7936 87.2453 64.1648 87.4915 64.6534C87.7415 65.142 87.8665 65.7386 87.8665 66.4432V72H85.8097V66.7614C85.8097 66.1742 85.6581 65.7178 85.3551 65.392C85.0559 65.0625 84.6354 64.8977 84.0938 64.8977C83.7301 64.8977 83.4044 64.9773 83.1165 65.1364C82.8324 65.2917 82.6089 65.517 82.446 65.8125C82.2869 66.108 82.2074 66.4659 82.2074 66.8864Z" fill="white" fill-opacity="0.75"/>
</svg>
