<svg width="51" height="51" viewBox="0 0 51 51" fill="none" xmlns="http://www.w3.org/2000/svg">
<rect x="0.5" y="0.5" width="49.7412" height="49.7647" rx="24.8706" stroke="white"/>
<path d="M30.3724 16.3672C30.2563 16.2508 30.1184 16.1585 29.9665 16.0955C29.8147 16.0324 29.6519 16 29.4874 16C29.323 16 29.1602 16.0324 29.0084 16.0955C28.8565 16.1585 28.7186 16.2508 28.6024 16.3672L20.2924 24.6772C20.1997 24.7697 20.1262 24.8796 20.076 25.0006C20.0258 25.1216 20 25.2513 20 25.3822C20 25.5132 20.0258 25.6429 20.076 25.7639C20.1262 25.8848 20.1997 25.9947 20.2924 26.0872L28.6024 34.3972C29.0924 34.8872 29.8824 34.8872 30.3724 34.3972C30.8624 33.9072 30.8624 33.1172 30.3724 32.6272L23.1324 25.3772L30.3824 18.1272C30.8624 17.6472 30.8624 16.8472 30.3724 16.3672Z" fill="white"/>
</svg>
